<svg width="23" height="19" viewBox="0 0 23 19" fill="none" xmlns="http://www.w3.org/2000/svg">
<path d="M2.11392 17.3651C1.75464 17.2223 1.4339 16.9972 1.17753 16.7079C0.921164 16.4185 0.736331 16.073 0.637916 15.6991C0.204824 13.754 0.011386 11.7632 0.0619159 9.7711C0.0116798 7.78138 0.204778 5.79297 0.636916 3.8501C0.733404 3.47679 0.916121 3.13132 1.17038 2.84145C1.42464 2.55158 1.74336 2.32541 2.10092 2.1811C5.48792 0.887098 10.8349 0.850098 11.4339 0.850098H11.4719C12.0999 0.850098 17.4469 0.887098 20.8219 2.1761C21.181 2.31904 21.5015 2.54425 21.7576 2.8336C22.0138 3.12295 22.1985 3.46837 22.2969 3.8421C22.73 5.78721 22.9234 7.778 22.8729 9.7701C22.9234 11.7612 22.7303 13.7509 22.2979 15.6951C22.2008 16.0676 22.0178 16.4123 21.7636 16.7014C21.5094 16.9905 21.191 17.2161 20.8339 17.3601C17.4469 18.6541 12.0999 18.6911 11.5009 18.6911C10.8359 18.6921 5.48792 18.6501 2.11392 17.3651ZM2.69492 3.6991C2.5775 3.74801 2.47304 3.8235 2.38974 3.91963C2.30645 4.01576 2.24661 4.12991 2.21492 4.2531C1.81694 6.06435 1.64098 7.91731 1.69092 9.7711C1.64096 11.6259 1.81726 13.4799 2.21592 15.2921C2.24839 15.417 2.30974 15.5326 2.39502 15.6295C2.48029 15.7264 2.58712 15.802 2.70692 15.8501C5.84992 17.0501 11.2069 17.0651 11.4339 17.0651C11.7269 17.0651 17.0849 17.0511 20.2399 15.8461C20.3573 15.7972 20.4618 15.7217 20.5451 15.6256C20.6284 15.5294 20.6882 15.4153 20.7199 15.2921C21.118 13.4805 21.2939 11.6272 21.2439 9.7731C21.294 7.9176 21.1177 6.06292 20.7189 4.2501C20.6859 4.12574 20.6244 4.0108 20.5391 3.91445C20.4539 3.81809 20.3473 3.74298 20.2279 3.6951C17.0849 2.4951 11.7279 2.4801 11.5009 2.4801H11.4339C11.2079 2.4791 5.84992 2.4931 2.69492 3.6991ZM9.45392 13.7501C9.32402 13.6805 9.21544 13.5769 9.13972 13.4505C9.064 13.3241 9.02398 13.1795 9.02392 13.0321V6.5121C9.02373 6.36463 9.06361 6.21988 9.13929 6.09331C9.21498 5.96674 9.32362 5.86312 9.45362 5.79349C9.58362 5.72387 9.73009 5.69088 9.87739 5.69803C10.0247 5.70518 10.1673 5.75221 10.2899 5.8341L15.1779 9.0931C15.2895 9.16741 15.381 9.26814 15.4443 9.38634C15.5076 9.50453 15.5407 9.63653 15.5407 9.7706C15.5407 9.90467 15.5076 10.0367 15.4443 10.1549C15.381 10.2731 15.2895 10.3738 15.1779 10.4481L10.2899 13.7071C10.1672 13.7887 10.0247 13.8356 9.87744 13.8426C9.73023 13.8497 9.58386 13.8166 9.45392 13.7471V13.7501ZM10.6539 11.5101L13.2539 9.7731L10.6539 8.0371V11.5101Z" fill="#005CFF"/>
</svg>
