<svg width="28" height="27" viewBox="0 0 28 27" fill="none" xmlns="http://www.w3.org/2000/svg">
<path d="M15.8615 1.34437C15.5438 0.709889 14.8802 0.324096 14.1717 0.361959C13.4644 0.325699 12.8026 0.711217 12.4852 1.34437L1.11795 24.0578C0.676988 24.9387 1.0337 26.0104 1.91467 26.4513C2.79565 26.8923 3.86729 26.5356 4.30825 25.6546L7.10061 20.0753C7.10215 20.072 7.10546 20.0699 7.10909 20.0699H21.2377C21.2413 20.0699 21.2446 20.072 21.2461 20.0753L24.0385 25.6546C24.4795 26.5355 25.551 26.8922 26.4319 26.4512C27.3128 26.0102 27.6695 24.9387 27.2285 24.0578L15.8615 1.34437ZM8.44903 17.3804L14.1649 5.95941C14.1664 5.95609 14.1697 5.95396 14.1734 5.95396C14.177 5.95396 14.1803 5.95609 14.1819 5.95941L19.898 17.3804C19.8995 17.3833 19.8994 17.3868 19.8976 17.3896C19.8959 17.3924 19.8928 17.394 19.8895 17.394H8.45751C8.45424 17.394 8.45117 17.3924 8.44943 17.3896C8.44769 17.3868 8.44754 17.3833 8.44903 17.3804Z" fill="black"/>
</svg>
