<svg width="36" height="27" viewBox="0 0 36 27" fill="none" xmlns="http://www.w3.org/2000/svg">
<path d="M35.4092 24.2239C35.3881 24.164 35.3635 24.1054 35.3355 24.0484L24.8681 2.89818C24.3303 1.65524 23.2105 0.760427 21.8795 0.510154C20.5486 0.259881 19.1802 0.686815 18.2277 1.64953L15.6558 6.54635L9.48348 19.5472C8.46434 21.5115 6.85732 22.8122 4.9428 23.2675L14.3939 4.23756C14.4128 4.19884 14.4303 4.15955 14.4465 4.1197C14.6009 3.77243 14.9456 3.54885 15.3257 3.54936C15.3614 3.54997 15.3971 3.55261 15.4325 3.55727L16.987 0.792325C15.9911 0.348265 14.8588 0.321648 13.8432 0.718423C12.8275 1.1152 12.0132 1.90229 11.582 2.90384L1.10358 24.0054C1.08747 24.0356 1.0725 24.0665 1.05835 24.0984C0.825511 24.6138 0.860678 25.2108 1.15242 25.6953C1.44419 26.1799 1.95532 26.4902 2.51984 26.5256C2.805 26.5493 3.09356 26.5612 3.37873 26.5612C7.13004 26.5612 10.4504 24.465 12.2595 20.9527C12.2671 20.9378 12.2747 20.9228 12.2818 20.9072L18.1712 8.50072L18.1729 8.49676L18.2252 8.3871L19.9492 4.76522L19.9467 4.75985L20.2061 4.21325C20.217 4.19026 20.2273 4.16718 20.2369 4.14401C20.3862 3.78403 20.7375 3.54935 21.1272 3.54935C21.5169 3.54935 21.8682 3.78403 22.0175 4.14401C22.0302 4.17538 22.0457 4.20647 22.0596 4.23699L31.4773 23.2666C29.5764 22.8099 27.9772 21.5101 26.9595 19.5478L20.7615 6.47625L19.0502 10.1267L24.1607 20.905C24.168 20.9202 24.1756 20.9358 24.1833 20.951C26.0203 24.5155 29.2468 26.5595 33.0383 26.5595C33.3376 26.5595 33.6406 26.5462 33.9387 26.5202C34.1275 26.504 34.3118 26.4532 34.4822 26.3704C35.3114 26.013 35.7178 25.0709 35.409 24.2225" fill="black"/>
</svg>
