<svg width="22" height="27" viewBox="0 0 22 27" fill="none" xmlns="http://www.w3.org/2000/svg">
<path d="M19.8716 0.539419C18.9234 0.621008 18.1994 1.42148 18.2131 2.37311V19.6346C18.2134 19.6388 18.2109 19.6426 18.2069 19.644C18.2029 19.6454 18.1986 19.644 18.1961 19.6405L3.94211 1.05126C3.38323 0.323687 2.36115 0.143606 1.58725 0.636362C1.06934 0.976948 0.761676 1.55887 0.771883 2.17866V24.803C0.757836 25.7545 1.48167 26.555 2.42979 26.6364C2.91669 26.6666 3.39443 26.4942 3.7499 26.1601C4.10539 25.826 4.30699 25.3598 4.30699 24.872V7.36488C4.30711 7.36089 4.30966 7.35739 4.3134 7.35607C4.31719 7.35475 4.32137 7.3559 4.32395 7.35895L18.5786 25.9477C19.1465 26.6881 20.1918 26.8601 20.967 26.3408C21.4653 25.9967 21.7587 25.4265 21.7491 24.8211V2.30387C21.7491 1.81628 21.5475 1.35008 21.192 1.01591C20.8363 0.681601 20.3585 0.509237 19.8716 0.539419Z" fill="black"/>
</svg>
