<svg width="26" height="27" viewBox="0 0 26 27" fill="none" xmlns="http://www.w3.org/2000/svg">
<path d="M23.417 0.359427H2.05534C1.10555 0.345005 0.306421 1.06774 0.225636 2.01421C0.195693 2.49996 0.36774 2.9765 0.701066 3.33109C1.03442 3.68568 1.49942 3.88681 1.9861 3.88691L10.9285 3.88691C10.9337 3.88705 10.938 3.89127 10.9381 3.89652L10.9381 24.8067C10.9236 25.7564 11.646 26.5554 12.5923 26.6365C13.0781 26.6664 13.5546 26.4944 13.9092 26.161C14.2638 25.8277 14.4649 25.3627 14.465 24.876V3.89652C14.465 3.89142 14.469 3.8872 14.474 3.88691L23.3486 3.88691C24.2982 3.90103 25.097 3.17837 25.1777 2.23212C25.2077 1.74632 25.0356 1.26973 24.7021 0.915136C24.3688 0.560538 23.9037 0.35944 23.417 0.359427Z" fill="black"/>
</svg>
