<svg width="28" height="27" viewBox="0 0 28 27" fill="none" xmlns="http://www.w3.org/2000/svg">
<path d="M26.104 0.548508C25.223 0.107463 24.1513 0.464191 23.7104 1.34524L13.8544 21.0402C13.8527 21.0434 13.8494 21.0455 13.8457 21.0455C13.8421 21.0455 13.8387 21.0434 13.8371 21.0402L3.98103 1.34524C3.52715 0.489193 2.4729 0.152047 1.60653 0.585885C0.740157 1.01972 0.378578 2.06586 0.792136 2.94208L12.1575 25.6546C12.4598 26.2593 13.078 26.641 13.754 26.6404C13.7843 26.6404 13.8151 26.6368 13.8456 26.6353C13.8761 26.6339 13.9069 26.6404 13.9374 26.6404C14.6134 26.6409 15.2316 26.2592 15.534 25.6546L26.9007 2.94208C27.3416 2.0611 26.9849 0.989517 26.104 0.548508Z" fill="black"/>
</svg>
